<svg width="515" height="140" fill="none" xmlns="http://www.w3.org/2000/svg"><path d="M147.315 52.203c-15.226-2.864-31.937 2.874-41.909 14.798-5.214 6.234-8.574 13.769-12.613 20.828-4.913 8.574-11.011 16.653-18.983 22.498-7.972 5.846-17.983 9.303-27.79 8.089-9.807-1.214-19.168-7.584-22.605-16.847-4.069-10.953 1.262-24.304 11.331-30.237 5.695-3.275 12.694-4.317 19.072-2.767.547.133 1.054-.382.906-.925-4.563-16.73 4.183-36.224 19.863-43.742 16.08-7.71 37.412-1.854 47.307 12.983l15.235-11.4C124.71 6.547 100.143-3.562 77.985 1.148c-22.158 4.71-40.568 24.022-44.18 46.375l-.088-.02c-.029.301-4.175 1.797-4.66 2.04a54.157 54.157 0 0 0-4.642 2.573c-3.01 1.854-5.836 4-8.448 6.389-5.224 4.787-9.574 10.458-12.322 16.992-4.233 10.05-4.826 21.605-1.534 32.014 3.651 11.555 12.021 21.528 22.77 27.121 15.556 8.098 35.024 6.573 50.599-1.486 15.575-8.059 27.518-21.993 35.84-37.432 3.728-6.914 7.03-14.459 13.263-19.245 8.992-6.895 23.198-5.623 30.81 2.757 7.623 8.38 7.525 22.654-.194 30.936-7.719 8.283-21.945 9.38-30.849 2.369-4.272 5.496-8.554 10.992-12.827 16.488 13.303 10.701 33.112 12.516 48.133 4.389 15.021-8.118 24.353-25.693 22.682-42.685-1.67-16.993-14.264-32.403-30.576-37.432a41.123 41.123 0 0 0-4.438-1.098l-.009.01Z" fill="#fff"/><path fill-rule="evenodd" clip-rule="evenodd" d="M212.353 47.853c-2.83 6.526-4.244 13.554-4.244 21.084 0 7.712 1.437 14.968 4.312 21.768 2.921 6.8 7.119 12.732 12.595 17.797 5.477 5.066 12.139 9.059 19.989 11.98 7.894 2.92 16.816 4.381 26.764 4.381 7.119 0 13.668-.753 19.646-2.259 5.978-1.552 11.318-3.697 16.018-6.435 4.701-2.784 8.739-6.092 12.116-9.926 3.377-3.833 6.024-8.031 7.941-12.595 1.962-4.609 3.149-9.492 3.559-14.649.457-5.202.114-10.541-1.027-16.018l-.068.069v-.069H273.07v17.866h37.375c-.639 3.788-1.962 7.21-3.97 10.268-2.008 3.012-4.609 5.59-7.804 7.736-3.194 2.144-6.936 3.81-11.226 4.997-4.29 1.14-9.013 1.711-14.17 1.711-6.48 0-12.344-.89-17.592-2.67-5.248-1.825-9.72-4.335-13.417-7.53-3.696-3.194-6.548-7.004-8.556-11.431-2.008-4.427-3.012-9.287-3.012-14.58 0-5.112.958-9.812 2.875-14.102 1.917-4.29 4.7-7.963 8.351-11.02 3.651-3.104 8.123-5.5 13.417-7.188 5.294-1.734 11.317-2.601 18.071-2.601 2.921 0 5.819.16 8.694.479 2.92.32 5.727.799 8.419 1.437 2.739.594 5.294 1.347 7.667 2.26 2.373.866 4.495 1.848 6.366 2.943l9.994-16.429a64.27 64.27 0 0 0-9.857-4.45 81.358 81.358 0 0 0-10.61-3.148 88.046 88.046 0 0 0-11.021-1.78 100.34 100.34 0 0 0-11.089-.616c-10.222 0-19.304 1.392-27.244 4.176-7.895 2.783-14.558 6.594-19.988 11.431-5.431 4.838-9.561 10.542-12.39 17.113Zm136.643-31.422h21.7l38.881 39.018 38.881-39.018h21.699v106.991h-21.699v-76.94l-38.881 37.443-38.881-37.443v76.94h-21.7V16.431Zm143.572 0h21.836v106.991h-21.836V16.431Z" fill="#fff"/></svg>